<svg xmlns="http://www.w3.org/2000/svg" class="svg-symbols">
  <defs>
    <symbol id="svg-github" viewBox="0 0 96 96">
      <title>GitHub icon</title>      
      <path fill="#fff" fill-rule="evenodd" d="M48.854 0C21.839 0 0 22 0 49.217c0 21.756 13.993 40.172 33.405 46.69 2.427.49 3.316-1.059 3.316-2.362 0-1.141-.08-5.052-.08-9.127-13.59 2.934-16.42-5.867-16.42-5.867-2.184-5.704-5.42-7.17-5.42-7.17-4.448-3.015.324-3.015.324-3.015 4.934.326 7.523 5.052 7.523 5.052 4.367 7.496 11.404 5.378 14.235 4.074.404-3.178 1.699-5.378 3.074-6.6-10.839-1.141-22.243-5.378-22.243-24.283 0-5.378 1.94-9.778 5.014-13.2-.485-1.222-2.184-6.275.486-13.038 0 0 4.125-1.304 13.426 5.052a46.97 46.97 0 0 1 12.214-1.63c4.125 0 8.33.571 12.213 1.63 9.302-6.356 13.427-5.052 13.427-5.052 2.67 6.763.97 11.816.485 13.038 3.155 3.422 5.015 7.822 5.015 13.2 0 18.905-11.404 23.06-22.324 24.283 1.78 1.548 3.316 4.481 3.316 9.126 0 6.6-.08 11.897-.08 13.526 0 1.304.89 2.853 3.316 2.364 19.412-6.52 33.405-24.935 33.405-46.691C97.707 22 75.788 0 48.854 0z" clip-rule="evenodd"/>
    </symbol>

    <symbol id="svg-phone-icon" fill="none" viewBox="0 0 512 512"><path d="M368 512H144c-17.6 0-32-14.4-32-32V32c0-17.6 14.4-32 32-32h224c17.6 0 32 14.4 32 32v448c0 17.6-14.4 32-32 32z" style="fill:#333"/><path d="M135.456 50.672h241.28v372h-241.28z" style="fill:#fff"/><path d="M256.176 489.456c-12.496 0-22.656-10.176-22.656-22.672s10.16-22.672 22.656-22.672 22.672 10.176 22.672 22.672-10.176 22.672-22.672 22.672zm0-37.344c-8.08 0-14.656 6.576-14.656 14.672s6.576 14.672 14.656 14.672c8.096 0 14.672-6.576 14.672-14.672s-6.576-14.672-14.672-14.672z" style="fill:#d6d6d6"/><circle cx="256.16" cy="25.328" r="7.792" style="fill:#d6d6d6"/><circle cx="312.816" cy="25.328" r="7.792" style="fill:#d6d6d6"/><circle cx="337.44" cy="25.328" r="7.792" style="fill:#d6d6d6"/><path d="M73.728 349.312c-57.328-105.696-1.552-175.696.848-178.624l12.384 10.128c-2.112 2.608-51.184 64.976.832 160.864l-14.064 7.632z" style="fill:#0ba4e0"/><path d="M42.56 372.528c-72.208-133.12.112-223.808.848-224.72l12.384 10.144c-2.72 3.344-66.048 83.632.832 206.96l-14.064 7.616zM438.288 349.312l-14.064-7.632c52.256-96.336 1.36-160.208.848-160.848l12.368-10.16c2.4 2.944 58.176 72.944.848 178.64z" style="fill:#0ba4e0"/><path d="m469.44 372.528-14.064-7.632c66.88-123.328 3.568-203.6.832-206.96l12.384-10.144c.736.928 73.056 91.616.848 224.736z" style="fill:#0ba4e0"/></symbol>

    <symbol id="svg-so" viewBox="0 0 34.641 34.641">
      <title>Stack Overflow icon</title>
      <g>
        <path d="M23.994,20.416c0.781,0,1.551,0,2.319,0c0,4.742,0,9.482,0,14.225c-7.536,0-15.057,0-22.585,0c0-4.744,0-9.479,0-14.225
          c0.769,0,1.538,0,2.318,0c0,3.971,0,7.938,0,11.92c5.982,0,11.954,0,17.946,0C23.994,28.359,23.994,24.393,23.994,20.416z
          M17.389,4.498c2.572,3.772,5.138,7.533,7.707,11.3c0.812-0.555,1.611-1.1,2.414-1.647c-2.576-3.776-5.14-7.534-7.707-11.299
          C18.995,3.402,18.199,3.945,17.389,4.498z M24.622,16.196c-3.936-2.321-7.854-4.632-11.78-6.948
          c-0.499,0.845-0.989,1.675-1.486,2.517c3.926,2.315,7.847,4.627,11.782,6.948C23.637,17.866,24.129,17.034,24.622,16.196z
          M28.571,0c-0.965,0.168-1.91,0.333-2.879,0.5c0.78,4.499,1.562,8.981,2.34,13.474c0.972-0.168,1.922-0.334,2.88-0.5
          C30.131,8.97,29.352,4.487,28.571,0z M22.897,19.539c-4.41-1.188-8.803-2.367-13.208-3.552c-0.254,0.942-0.505,1.875-0.76,2.822
          c4.409,1.186,8.806,2.366,13.209,3.551C22.395,21.412,22.645,20.479,22.897,19.539z M21.658,27.104c-4.558,0-9.103,0-13.654,0
          c0,0.979,0,1.942,0,2.905c4.559,0,9.104,0,13.654,0C21.658,29.031,21.658,28.066,21.658,27.104z M22,23.349
          c-4.547-0.418-9.078-0.838-13.619-1.254C8.29,23.072,8.2,24.033,8.11,25.005c4.547,0.418,9.079,0.836,13.62,1.254
          C21.821,25.281,21.909,24.32,22,23.349z"/>
      </g>
      <g>
      </g>
      <g>
      </g>
      <g>
      </g>
      <g>
      </g>
      <g>
      </g>
      <g>
      </g>
      <g>
      </g>
      <g>
      </g>
      <g>
      </g>
      <g>
      </g>
      <g>
      </g>
      <g>
      </g>
      <g>
      </g>
      <g>
      </g>
      <g>
      </g>
    </symbol>

    <symbol id="svg-message-sent" viewBox="0 0 737.61 734.73">
      <title>Message sent</title>
      <defs><linearGradient id="a" x1="600" y1="817.36" x2="600" y2="82.64" gradientUnits="userSpaceOnUse"><stop offset="0" stop-color="gray" stop-opacity=".25"/><stop offset=".54" stop-color="gray" stop-opacity=".12"/><stop offset="1" stop-color="gray" stop-opacity=".1"/></linearGradient><linearGradient id="b" x1="640.68" y1="541.38" x2="640.68" y2="111.38" gradientTransform="rotate(.13 36889.153 -101490.725)" gradientUnits="userSpaceOnUse"><stop offset="0" stop-opacity=".12"/><stop offset=".55" stop-opacity=".09"/><stop offset="1" stop-opacity=".02"/></linearGradient></defs><path d="M968.8 384.4c.06-27.46-5.63-34.67-18-45.11L617.08 88.13A27.22 27.22 0 0 0 584.4 88L256.58 332.11c-12.44 10.38-24.09 22.48-24.15 49.94h-.36l-.84 376v16.74a41 41 0 0 0 40.92 41.1h16.16l310.85.69 327 .73a41 41 0 0 0 41.1-40.92l.87-392.05z" transform="translate(-231.2 -82.64)" fill="url(#a)"/><path d="M7.017 301.158l722.998 1.64-.794 350a71.78 71.78 0 0 1-71.923 71.607L76.53 723.087a70.47 70.47 0 0 1-70.31-70.63l.797-351.299z" fill="#6c63ff"/><path d="M7.03 301.14l-.81 365.62a56.16 56.16 0 0 0 56 56.28l610.76 1.32" fill="#f5f5f5"/><path d="M730.07 302.75l-.81 365.61a56.16 56.16 0 0 1-56.28 56L62.25 723" fill="#fff"/><path d="M353.13 15.27l-322 237.32c-12.22 10.09-23.66 21.86-23.72 48.56l723.39 2.29c.06-26.7-5.53-33.71-17.7-43.86L385.23 15.36a27 27 0 0 0-32.1-.09z" fill="#6c63ff"/><path d="M353.13 15.27l-322 237.32c-12.22 10.09-23.66 21.86-23.72 48.56l723.39 2.29c.06-26.7-5.53-33.71-17.7-43.86L385.23 15.36a27 27 0 0 0-32.1-.09z" opacity=".3"/><path fill="url(#b)" d="M651.79 97.86L564.3 29.19 352.78 297.12l-113.67-88.13-71.17 90.46 165.42 126.36 41.01 32.95 277.42-360.9z"/><path fill="#fff" d="M645.39 96.18l-79.33-60.83L355.92 309.4l-116.71-89.49-60.83 79.33 156.36 119.72 40.1 30.05L645.39 96.18z"/>
    </symbol>

    <symbol id="svg-logo" viewBox="0 0 100 100">
      <title>Logo</title>
      <g transform="translate(5, 5) scale(1.1)">
        <g id="SvgjsG1021" rel="mainfill" name="symbol" xmlns:name="symbol_mainfill" fill="currentColor">
          <polygon xmlns="http://www.w3.org/2000/svg" points="29.43 29.76 11.11 50.6 29.43 71.44 35.44 66.16 21.76 50.6 35.44 35.04 29.43 29.76"/>
          <polygon xmlns="http://www.w3.org/2000/svg" points="64.56 35.04 78.24 50.6 64.56 66.16 70.57 71.44 88.89 50.6 70.57 29.76 64.56 35.04"/>
          <rect xmlns="http://www.w3.org/2000/svg" x="16.09" y="46" width="67.81" height="8" transform="translate(-9.46 88.27) rotate(-77.77)"/>
        </g>
      </g>
    </symbol>


    <symbol id="svg-back-button" viewBox="0 0 52 52">
      <title>Back button icon</title>
      <g>
        <path d="M26,0C11.663,0,0,11.663,0,26s11.663,26,26,26s26-11.663,26-26S40.337,0,26,0z M26,50C12.767,50,2,39.233,2,26
          S12.767,2,26,2s24,10.767,24,24S39.233,50,26,50z"/>
        <path d="M32,36.783V15.438L14.043,25.806L32,36.783z M30,33.217l-12.043-7.362L30,18.902V33.217z"/>
      </g>
    </symbol>

    <symbol viewBox="0 0 49.652 49.652" id="svg-twitter">
      <title>Twitter icon</title>
      <g>
        <g>
          <path d="M24.826,0C11.137,0,0,11.137,0,24.826c0,13.688,11.137,24.826,24.826,24.826c13.688,0,24.826-11.138,24.826-24.826
            C49.652,11.137,38.516,0,24.826,0z M35.901,19.144c0.011,0.246,0.017,0.494,0.017,0.742c0,7.551-5.746,16.255-16.259,16.255
            c-3.227,0-6.231-0.943-8.759-2.565c0.447,0.053,0.902,0.08,1.363,0.08c2.678,0,5.141-0.914,7.097-2.446
            c-2.5-0.046-4.611-1.698-5.338-3.969c0.348,0.066,0.707,0.103,1.074,0.103c0.521,0,1.027-0.068,1.506-0.199
            c-2.614-0.524-4.583-2.833-4.583-5.603c0-0.024,0-0.049,0.001-0.072c0.77,0.427,1.651,0.685,2.587,0.714
            c-1.532-1.023-2.541-2.773-2.541-4.755c0-1.048,0.281-2.03,0.773-2.874c2.817,3.458,7.029,5.732,11.777,5.972
            c-0.098-0.419-0.147-0.854-0.147-1.303c0-3.155,2.558-5.714,5.713-5.714c1.644,0,3.127,0.694,4.171,1.804
            c1.303-0.256,2.523-0.73,3.63-1.387c-0.43,1.335-1.333,2.454-2.516,3.162c1.157-0.138,2.261-0.444,3.282-0.899
            C37.987,17.334,37.018,18.341,35.901,19.144z"/>
        </g>
      </g>
      <g>
      </g>
      <g>
      </g>
      <g>
      </g>
      <g>
      </g>
      <g>
      </g>
      <g>
      </g>
      <g>
      </g>
      <g>
      </g>
      <g>
      </g>
      <g>
      </g>
      <g>
      </g>
      <g>
      </g>
      <g>
      </g>
      <g>
      </g>
      <g>
      </g>
      <g>
      </g>
    </symbol>

    <symbol id="svg-github" viewBox="0 0 438 438">
      <title>Github icon</title>
      <path d="M409.132,114.573c-19.608-33.596-46.205-60.194-79.798-79.8C295.736,15.166,259.057,5.365,219.271,5.365
               c-39.781,0-76.472,9.804-110.063,29.408c-33.596,19.605-60.192,46.204-79.8,79.8C9.803,148.168,0,184.854,0,224.63
               c0,47.78,13.94,90.745,41.827,128.906c27.884,38.164,63.906,64.572,108.063,79.227c5.14,0.954,8.945,0.283,11.419-1.996
               c2.475-2.282,3.711-5.14,3.711-8.562c0-0.571-0.049-5.708-0.144-15.417c-0.098-9.709-0.144-18.179-0.144-25.406l-6.567,1.136
               c-4.187,0.767-9.469,1.092-15.846,1c-6.374-0.089-12.991-0.757-19.842-1.999c-6.854-1.231-13.229-4.086-19.13-8.559
               c-5.898-4.473-10.085-10.328-12.56-17.556l-2.855-6.57c-1.903-4.374-4.899-9.233-8.992-14.559
               c-4.093-5.331-8.232-8.945-12.419-10.848l-1.999-1.431c-1.332-0.951-2.568-2.098-3.711-3.429c-1.142-1.331-1.997-2.663-2.568-3.997
               c-0.572-1.335-0.098-2.43,1.427-3.289c1.525-0.859,4.281-1.276,8.28-1.276l5.708,0.853c3.807,0.763,8.516,3.042,14.133,6.851
               c5.614,3.806,10.229,8.754,13.846,14.842c4.38,7.806,9.657,13.754,15.846,17.847c6.184,4.093,12.419,6.136,18.699,6.136
               c6.28,0,11.704-0.476,16.274-1.423c4.565-0.952,8.848-2.383,12.847-4.285c1.713-12.758,6.377-22.559,13.988-29.41
               c-10.848-1.14-20.601-2.857-29.264-5.14c-8.658-2.286-17.605-5.996-26.835-11.14c-9.235-5.137-16.896-11.516-22.985-19.126
               c-6.09-7.614-11.088-17.61-14.987-29.979c-3.901-12.374-5.852-26.648-5.852-42.826c0-23.035,7.52-42.637,22.557-58.817
               c-7.044-17.318-6.379-36.732,1.997-58.24c5.52-1.715,13.706-0.428,24.554,3.853c10.85,4.283,18.794,7.952,23.84,10.994
               c5.046,3.041,9.089,5.618,12.135,7.708c17.705-4.947,35.976-7.421,54.818-7.421s37.117,2.474,54.823,7.421l10.849-6.849
               c7.419-4.57,16.18-8.758,26.262-12.565c10.088-3.805,17.802-4.853,23.134-3.138c8.562,21.509,9.325,40.922,2.279,58.24
               c15.036,16.18,22.559,35.787,22.559,58.817c0,16.178-1.958,30.497-5.853,42.966c-3.9,12.471-8.941,22.457-15.125,29.979
               c-6.191,7.521-13.901,13.85-23.131,18.986c-9.232,5.14-18.182,8.85-26.84,11.136c-8.662,2.286-18.415,4.004-29.263,5.146
               c9.894,8.562,14.842,22.077,14.842,40.539v60.237c0,3.422,1.19,6.279,3.572,8.562c2.379,2.279,6.136,2.95,11.276,1.995
               c44.163-14.653,80.185-41.062,108.068-79.226c27.88-38.161,41.825-81.126,41.825-128.906
               C438.536,184.851,428.728,148.168,409.132,114.573z"/>
    </symbol>

    <symbol viewBox="0 0 31.665 31.665" id="svg-codepen">
      <title>Codepen icon</title>
      <g>
        <path d="M16.878,0.415c-0.854-0.565-1.968-0.552-2.809,0.034L1.485,9.214c-0.671,0.468-1.071,1.233-1.071,2.052v9.444   c0,0.84,0.421,1.623,1.122,2.086l12.79,8.455c0.836,0.553,1.922,0.553,2.758,0l13.044-8.618c0.7-0.463,1.122-1.246,1.122-2.086   v-9.279c0-0.839-0.421-1.622-1.121-2.085L16.878,0.415z M26.621,10.645l-4.821,3.237l-4.521-3.288L17.25,4.127L26.621,10.645z    M13.979,4.133v6.329l-4.633,3.24l-4.621-3.099L13.979,4.133z M3.458,13.722l2.991,2.004l-2.991,2.093V13.722z M14.058,27.215   l-9.331-6.258l4.661-3.258l4.67,3.133V27.215z M12.286,15.674l3.021-2.113l3.519,2.313l-3.119,2.095L12.286,15.674z M17.354,27.215   V20.83l4.463-2.991l4.805,3.159L17.354,27.215z M27.954,17.927l-3.168-2.082l3.168-2.125V17.927z" fill="currentColor"/>
      </g>
      <g>
      </g>
      <g>
      </g>
      <g>
      </g>
      <g>
      </g>
      <g>
      </g>
      <g>
      </g>
      <g>
      </g>
      <g>
      </g>
      <g>
      </g>
      <g>
      </g>
      <g>
      </g>
      <g>
      </g>
      <g>
      </g>
      <g>
      </g>
      <g>
      </g>
      <g>
      </g>
      <g>
      </g>
    </symbol>
  </defs>
</svg>
